# 3ds Max Wavefront OBJ Exporter v0.97b - (c)2007 guruware
# File Created: 11.09.2016 11:04:39

mtllib Chair.mtl

#
# object Box001
#

v  -20.2204 0.7523 -13.9364
v  -20.2204 0.7523 -18.9364
v  -15.2204 0.7523 -18.9364
v  -15.2204 0.7523 -13.9364
v  -20.2204 40.7523 -13.9364
v  -15.2204 40.7523 -13.9364
v  -15.2204 40.7523 -18.9364
v  -20.2204 40.7523 -18.9364
# 8 vertices

vn 0.0000 -1.0000 -0.0000
vn 0.0000 1.0000 -0.0000
vn 0.0000 0.0000 1.0000
vn 1.0000 0.0000 -0.0000
vn 0.0000 0.0000 -1.0000
vn -1.0000 0.0000 -0.0000
# 6 vertex normals

vt 1.0000 0.0000 0.0000
vt 1.0000 1.0000 0.0000
vt 0.0000 1.0000 0.0000
vt 0.0000 0.0000 0.0000
# 4 texture coords

g Box001
usemtl wire_177088027
s 2
f 1/1/1 2/2/1 3/3/1 4/4/1 
s 4
f 5/4/2 6/1/2 7/2/2 8/3/2 
s 8
f 1/4/3 4/1/3 6/2/3 5/3/3 
s 16
f 4/4/4 3/1/4 7/2/4 6/3/4 
s 32
f 3/4/5 2/1/5 8/2/5 7/3/5 
s 64
f 2/4/6 1/1/6 5/2/6 8/3/6 
# 6 polygons

#
# object Box002
#

v  13.3242 0.0000 -12.7924
v  13.3242 0.0000 -17.7924
v  18.3242 0.0000 -17.7924
v  18.3242 0.0000 -12.7924
v  13.3242 40.0000 -12.7924
v  18.3242 40.0000 -12.7924
v  18.3242 40.0000 -17.7924
v  13.3242 40.0000 -17.7924
# 8 vertices

vn 0.0000 -1.0000 -0.0000
vn 0.0000 1.0000 -0.0000
vn 0.0000 0.0000 1.0000
vn 1.0000 0.0000 -0.0000
vn 0.0000 0.0000 -1.0000
vn -1.0000 0.0000 -0.0000
# 6 vertex normals

vt 1.0000 0.0000 0.0000
vt 1.0000 1.0000 0.0000
vt 0.0000 1.0000 0.0000
vt 0.0000 0.0000 0.0000
# 4 texture coords

g Box002
usemtl wire_177088027
s 2
f 9/5/7 10/6/7 11/7/7 12/8/7 
s 4
f 13/8/8 14/5/8 15/6/8 16/7/8 
s 8
f 9/8/9 12/5/9 14/6/9 13/7/9 
s 16
f 12/8/10 11/5/10 15/6/10 14/7/10 
s 32
f 11/8/11 10/5/11 16/6/11 15/7/11 
s 64
f 10/8/12 9/5/12 13/6/12 16/7/12 
# 6 polygons

#
# object Box003
#

v  -21.5172 0.1932 19.4841
v  -21.5172 0.1932 14.4841
v  -16.5172 0.1932 14.4841
v  -16.5172 0.1932 19.4841
v  -21.5172 40.1932 19.4841
v  -16.5172 40.1932 19.4841
v  -16.5172 40.1932 14.4841
v  -21.5172 40.1932 14.4841
# 8 vertices

vn 0.0000 -1.0000 -0.0000
vn 0.0000 1.0000 -0.0000
vn 0.0000 0.0000 1.0000
vn 1.0000 0.0000 -0.0000
vn 0.0000 0.0000 -1.0000
vn -1.0000 0.0000 -0.0000
# 6 vertex normals

vt 1.0000 0.0000 0.0000
vt 1.0000 1.0000 0.0000
vt 0.0000 1.0000 0.0000
vt 0.0000 0.0000 0.0000
# 4 texture coords

g Box003
usemtl wire_177088027
s 2
f 17/9/13 18/10/13 19/11/13 20/12/13 
s 4
f 21/12/14 22/9/14 23/10/14 24/11/14 
s 8
f 17/12/15 20/9/15 22/10/15 21/11/15 
s 16
f 20/12/16 19/9/16 23/10/16 22/11/16 
s 32
f 19/12/17 18/9/17 24/10/17 23/11/17 
s 64
f 18/12/18 17/9/18 21/10/18 24/11/18 
# 6 polygons

#
# object Box004
#

v  12.1510 0.4390 20.5308
v  12.1510 0.4390 15.5308
v  17.1510 0.4390 15.5308
v  17.1510 0.4390 20.5308
v  12.1510 40.4390 20.5308
v  17.1510 40.4390 20.5308
v  17.1510 40.4390 15.5308
v  12.1510 40.4390 15.5308
# 8 vertices

vn 0.0000 -1.0000 -0.0000
vn 0.0000 1.0000 -0.0000
vn 0.0000 0.0000 1.0000
vn 1.0000 0.0000 -0.0000
vn 0.0000 0.0000 -1.0000
vn -1.0000 0.0000 -0.0000
# 6 vertex normals

vt 1.0000 0.0000 0.0000
vt 1.0000 1.0000 0.0000
vt 0.0000 1.0000 0.0000
vt 0.0000 0.0000 0.0000
# 4 texture coords

g Box004
usemtl wire_177088027
s 2
f 25/13/19 26/14/19 27/15/19 28/16/19 
s 4
f 29/16/20 30/13/20 31/14/20 32/15/20 
s 8
f 25/16/21 28/13/21 30/14/21 29/15/21 
s 16
f 28/16/22 27/13/22 31/14/22 30/15/22 
s 32
f 27/16/23 26/13/23 32/14/23 31/15/23 
s 64
f 26/16/24 25/13/24 29/14/24 32/15/24 
# 6 polygons

#
# object L_Ext001
#

v  18.4797 36.6330 -17.7779
v  -20.4684 37.5684 -19.0193
v  -20.3088 44.0620 -19.1324
v  12.1479 43.2825 -18.0979
v  19.4485 76.0583 -18.4644
v  12.9571 76.2142 -18.6713
v  17.2697 37.3329 20.7118
v  -21.6784 38.2683 19.4704
v  18.2385 76.7582 20.0253
v  11.7471 76.9141 19.8184
v  10.9379 43.9824 20.3918
v  -21.5188 44.7619 19.3573
# 12 vertices

vn 0.0314 -0.0182 -0.9993
vn -0.0246 -0.9995 0.0174
vn 0.9992 -0.0240 0.0318
vn 0.0246 0.9995 -0.0174
vn -0.9992 0.0240 -0.0318
vn -0.0314 0.0182 0.9993
# 6 vertex normals

vt 1.0000 0.0000 0.0000
vt 0.0000 0.0000 0.0000
vt 0.0000 0.1647 0.0000
vt 0.8333 0.1647 0.0000
vt 1.0000 1.0000 0.0000
vt 0.8333 1.0000 0.0000
vt 0.2485 0.0000 0.0000
vt 0.0000 1.0000 0.0000
vt 0.2485 1.0000 0.0000
vt 0.5000 0.0000 0.0000
vt 0.5000 1.0000 0.0000
vt 0.5414 0.0000 0.0000
vt 0.5414 1.0000 0.0000
vt 0.7515 0.0000 0.0000
vt 0.7515 1.0000 0.0000
vt 0.9586 0.0000 0.0000
vt 0.9586 1.0000 0.0000
vt 0.8333 0.8353 0.0000
vt 0.0000 0.8353 0.0000
vt 0.8333 0.0000 0.0000
# 20 texture coords

g L_Ext001
usemtl wire_177088027
s 1
f 33/17/25 34/18/25 35/19/25 36/20/25 
f 37/21/25 33/17/25 36/20/25 38/22/25 
s 2
f 39/23/26 40/18/26 34/24/26 33/25/26 
s 4
f 41/26/27 39/23/27 33/25/27 37/27/27 
s 2
f 42/28/28 41/26/28 37/27/28 38/29/28 
s 4
f 43/30/29 42/28/29 38/29/29 36/31/29 
s 2
f 44/32/28 43/30/28 36/31/28 35/33/28 
s 4
f 40/17/29 44/32/29 35/33/29 34/21/29 
s 1
f 43/34/30 44/35/30 40/24/30 39/21/30 
f 42/36/30 43/34/30 39/21/30 41/17/30 
# 10 polygons

#
# object C_Ext001
#

v  -15.4979 57.6471 16.6474
v  -15.4979 57.6471 19.3814
v  15.3975 57.6471 19.3814
v  12.6634 57.6471 16.6474
v  15.3975 57.6471 -17.6186
v  12.6634 57.6471 -14.8845
v  -14.6025 57.6471 -17.6186
v  -14.6025 57.6471 -14.8845
v  -15.4979 52.6471 19.3814
v  15.3975 52.6471 19.3814
v  15.3975 52.6471 -17.6186
v  -14.6025 52.6471 -17.6186
v  -14.6025 52.6471 -14.8845
v  12.6634 52.6471 -14.8845
v  12.6634 52.6471 16.6474
v  -15.4979 52.6471 16.6474
# 16 vertices

vn 0.0000 1.0000 -0.0000
vn 0.0000 0.0000 1.0000
vn 1.0000 0.0000 -0.0000
vn 0.0000 0.0000 -1.0000
vn -1.0000 0.0000 -0.0000
vn 0.0000 -1.0000 -0.0000
# 6 vertex normals

vt 0.0000 0.0739 0.0000
vt 0.0000 0.0000 0.0000
vt 1.0000 0.0000 0.0000
vt 0.9115 0.0739 0.0000
vt 1.0000 1.0000 0.0000
vt 0.9115 0.9261 0.0000
vt 0.0290 1.0000 0.0000
vt 0.0290 0.9261 0.0000
vt 0.0000 1.0000 0.0000
vt 0.1623 0.0000 0.0000
vt 0.1623 1.0000 0.0000
vt 0.3567 0.0000 0.0000
vt 0.3567 1.0000 0.0000
vt 0.5144 0.0000 0.0000
vt 0.5144 1.0000 0.0000
vt 0.5287 0.0000 0.0000
vt 0.5287 1.0000 0.0000
vt 0.6720 0.0000 0.0000
vt 0.6720 1.0000 0.0000
vt 0.8377 0.0000 0.0000
vt 0.8377 1.0000 0.0000
vt 0.9856 0.0000 0.0000
vt 0.9856 1.0000 0.0000
vt 0.0000 0.9261 0.0000
vt 0.0290 0.0739 0.0000
vt 0.0290 0.0000 0.0000
# 26 texture coords

g C_Ext001
usemtl wire_000000000
s 1
f 45/37/31 46/38/31 47/39/31 48/40/31 
f 48/40/31 47/39/31 49/41/31 50/42/31 
f 50/42/31 49/41/31 51/43/31 52/44/31 
s 2
f 46/45/32 53/38/32 54/46/32 47/47/32 
s 4
f 47/47/33 54/46/33 55/48/33 49/49/33 
s 2
f 49/49/34 55/48/34 56/50/34 51/51/34 
s 4
f 51/51/35 56/50/35 57/52/35 52/53/35 
s 2
f 52/53/32 57/52/32 58/54/32 50/55/32 
s 4
f 50/55/35 58/54/35 59/56/35 48/57/35 
s 2
f 48/57/34 59/56/34 60/58/34 45/59/34 
s 4
f 45/59/35 60/58/35 53/39/35 46/41/35 
s 1
f 53/45/36 60/60/36 59/42/36 54/41/36 
f 54/41/36 59/42/36 58/40/36 55/39/36 
f 55/39/36 58/40/36 57/61/36 56/62/36 
# 14 polygons

